<?xml version="1.0" standalone="no"?>
<!DOCTYPE svg PUBLIC "-//W3C//DTD SVG 20010904//EN"
 "http://www.w3.org/TR/2001/REC-SVG-20010904/DTD/svg10.dtd">
<svg version="1.0" xmlns="http://www.w3.org/2000/svg"
 width="200.000000pt" height="200.000000pt" viewBox="0 0 200.000000 200.000000"
 preserveAspectRatio="xMidYMid meet">

<g transform="translate(0.000000,200.000000) scale(0.100000,-0.100000)"
fill="#000000" stroke="none">
<path d="M259 1985 c-14 -8 -32 -28 -39 -44 -40 -96 77 -175 151 -102 78 79
-14 199 -112 146z"/>
<path d="M1019 1971 c-83 -83 32 -213 124 -141 51 40 43 126 -14 155 -43 23
-77 18 -110 -14z"/>
<path d="M255 1781 c-73 -18 -82 -32 -167 -255 -27 -72 -46 -136 -44 -143 13
-32 36 -4 96 117 35 71 66 128 67 126 3 -3 -14 -117 -52 -343 -6 -31 -4 -33
24 -33 29 0 29 -1 35 -67 3 -38 9 -121 12 -186 5 -89 10 -120 21 -124 7 -3 17
-2 21 2 4 3 12 88 17 188 6 111 14 181 20 180 6 -2 13 -58 18 -125 14 -232 17
-248 37 -248 20 0 20 2 37 260 l8 115 28 3 c16 2 27 9 27 19 0 14 -43 281 -55
343 -3 14 25 -33 62 -105 43 -81 75 -131 86 -133 28 -5 21 27 -37 177 -66 169
-80 197 -109 215 -27 18 -112 27 -152 17z"/>
<path d="M1014 1779 c-23 -5 -51 -20 -64 -34 -35 -38 -144 -354 -127 -371 16
-17 38 13 87 123 29 65 57 122 61 128 10 10 10 -298 0 -550 -4 -93 -3 -178 1
-187 10 -21 41 -24 56 -5 6 7 20 100 32 207 12 107 22 196 24 197 1 2 11 -81
21 -185 20 -207 26 -232 54 -232 43 0 44 13 33 328 -5 163 -7 328 -3 366 l6
68 59 -131 c54 -121 74 -148 91 -121 7 12 -77 273 -106 332 -11 21 -32 44 -47
52 -37 19 -128 27 -178 15z"/>
<path d="M662 1404 c-43 -30 -20 -104 33 -104 53 0 76 74 33 104 -12 9 -27 16
-33 16 -6 0 -21 -7 -33 -16z"/>
<path d="M505 1371 c-8 -15 46 -93 91 -129 l36 -30 -3 -169 c-4 -163 -3 -168
16 -168 17 0 22 11 32 75 7 41 14 82 16 90 2 8 9 -25 17 -75 13 -78 18 -90 35
-90 19 0 20 6 17 171 l-4 170 36 27 c43 33 100 113 91 128 -4 6 -29 -11 -60
-40 l-54 -51 -76 0 -76 0 -54 51 c-31 29 -56 46 -60 40z"/>
<path d="M1890 1256 c-36 -17 -156 -73 -268 -125 -111 -51 -202 -96 -202 -100
0 -3 38 -33 85 -65 47 -33 85 -62 85 -64 0 -7 -341 -491 -350 -497 -4 -2 -85
54 -180 125 l-173 130 -31 -43 c-17 -23 -109 -147 -203 -276 -139 -188 -173
-240 -173 -266 0 -53 53 -88 104 -69 8 3 86 102 172 220 87 118 161 214 164
214 4 0 84 -58 180 -130 l172 -129 216 307 c118 169 219 311 223 317 6 5 44
-16 100 -54 50 -34 92 -61 93 -59 4 4 57 591 53 593 -1 1 -31 -12 -67 -29z"/>
</g>
</svg>
