<?xml version="1.0" standalone="no"?>
<!DOCTYPE svg PUBLIC "-//W3C//DTD SVG 20010904//EN"
 "http://www.w3.org/TR/2001/REC-SVG-20010904/DTD/svg10.dtd">
<svg version="1.0" xmlns="http://www.w3.org/2000/svg"
 width="840.000000pt" height="829.000000pt" viewBox="0 0 840.000000 829.000000"
 preserveAspectRatio="xMidYMid meet">

<g transform="translate(0.000000,829.000000) scale(0.100000,-0.100000)"
fill="#000000" stroke="none">
<path d="M2213 6127 c-1090 -969 -1982 -1765 -1982 -1769 -1 -5 245 -8 547 -8
l547 0 65 58 c59 53 605 536 1804 1596 231 204 550 487 710 628 160 142 293
258 296 258 3 0 57 -46 121 -102 64 -57 266 -236 449 -398 184 -162 476 -421
650 -575 174 -154 525 -464 780 -690 255 -225 556 -492 669 -592 l206 -182
548 -1 c302 0 547 4 545 9 -1 4 -293 265 -648 580 -355 315 -651 582 -657 594
-10 17 -13 248 -13 1025 l0 1002 -715 0 -715 0 0 -370 c0 -203 -4 -370 -8
-370 -4 0 -279 241 -610 535 -331 294 -603 535 -604 534 -2 0 -895 -793 -1985
-1762z"/>
<path d="M4617 5816 c-137 -49 -209 -198 -162 -337 31 -91 120 -162 219 -175
65 -9 148 19 201 67 141 130 114 343 -56 428 -69 35 -136 40 -202 17z"/>
<path d="M3546 5644 c-59 -21 -98 -56 -131 -115 -85 -155 15 -345 193 -366
141 -16 272 103 272 246 -1 174 -172 295 -334 235z"/>
<path d="M4325 5210 c-99 -8 -148 -32 -207 -100 l-44 -51 -51 11 c-33 7 -176
10 -404 8 l-354 -3 -58 -29 c-37 -18 -68 -42 -84 -65 -16 -22 -76 -195 -157
-446 l-131 -410 -55 -7 c-30 -3 -170 -6 -310 -7 -147 -1 -271 -6 -294 -12 -21
-6 -58 -29 -82 -51 -69 -63 -76 -101 -72 -374 3 -223 3 -226 27 -245 34 -27
75 -24 100 7 20 25 21 40 21 220 l0 194 35 0 35 0 0 -544 c0 -361 4 -553 11
-574 28 -80 138 -83 178 -5 7 14 11 119 11 317 l0 296 35 0 35 0 0 -289 c0
-312 4 -342 51 -366 58 -30 118 -10 138 47 7 21 11 224 11 612 l0 581 127 35
c70 19 141 44 157 55 33 22 27 6 196 533 58 179 64 192 86 192 l24 0 0 -980
c0 -1080 -3 -1030 62 -1070 54 -33 92 -35 145 -9 87 44 83 14 83 661 l0 568
40 0 39 0 3 -574 c3 -562 3 -575 24 -602 37 -50 70 -68 124 -68 58 0 94 22
125 75 19 33 19 57 20 1014 l1 980 37 3 37 3 0 -331 c0 -370 2 -385 65 -414
41 -20 58 -20 95 -1 61 32 60 21 60 462 l0 403 45 0 45 0 0 -1035 c0 -858 2
-1041 14 -1069 17 -40 56 -72 107 -87 52 -16 119 9 157 59 l27 35 3 609 2 608
45 0 45 0 2 -612 c3 -595 4 -614 23 -640 30 -40 74 -62 125 -62 57 1 102 24
129 67 21 34 21 36 21 1081 l0 1047 27 -3 c27 -3 30 -12 145 -368 99 -309 121
-369 145 -390 20 -17 72 -37 171 -64 l142 -39 0 -624 c0 -677 -1 -666 55 -691
41 -19 81 -14 112 12 l28 24 5 329 5 328 38 3 37 3 0 -298 c0 -173 4 -313 10
-335 19 -66 82 -95 145 -66 56 25 55 18 55 647 l0 579 30 7 c16 4 34 4 40 0 6
-4 10 -82 10 -211 0 -204 0 -205 25 -229 31 -32 69 -32 100 0 l25 24 0 258 c0
228 -3 263 -19 298 -23 52 -89 111 -138 124 -21 6 -180 12 -353 14 -173 2
-322 7 -331 11 -10 4 -39 79 -79 204 -239 747 -215 683 -265 729 -79 73 -103
76 -480 78 -181 1 -366 -2 -410 -5z"/>
<path d="M5867 4620 c-48 -15 -94 -57 -112 -104 -59 -155 108 -295 251 -211
75 44 105 145 65 223 -24 47 -50 70 -98 88 -43 15 -66 16 -106 4z"/>
<path d="M2415 4506 c-91 -39 -123 -164 -64 -247 25 -36 90 -68 135 -69 51 0
115 40 141 90 29 54 29 94 1 150 -39 77 -134 111 -213 76z"/>
<path d="M1269 3803 c-61 -32 -113 -93 -129 -153 -7 -27 -10 -290 -8 -812 l3
-773 33 -95 c65 -186 35 -149 732 -890 179 -190 334 -362 343 -383 24 -50 37
-133 37 -240 l0 -87 463 2 462 3 -1 290 c0 236 -3 303 -17 358 -16 64 -56 152
-94 208 -41 60 -1155 1178 -1191 1195 -88 41 -183 24 -246 -46 -57 -63 -70
-156 -32 -229 8 -14 136 -156 285 -316 149 -159 289 -316 311 -348 49 -72 80
-155 87 -230 l6 -58 -84 3 -84 3 -6 53 c-4 33 -19 73 -39 105 -17 29 -162 196
-321 371 -174 191 -301 339 -317 370 -24 46 -27 62 -27 151 0 90 3 105 28 152
31 59 80 112 138 148 l39 25 0 530 c0 517 -1 531 -21 575 -24 51 -85 110 -135
131 -57 24 -152 18 -215 -13z"/>
<path d="M6885 3811 c-53 -25 -103 -76 -129 -131 -20 -44 -21 -61 -24 -571
l-3 -527 44 -25 c57 -33 123 -107 150 -165 17 -37 22 -66 22 -137 0 -138 -7
-148 -346 -520 -160 -176 -304 -342 -320 -370 -16 -27 -34 -76 -40 -107 l-12
-58 -78 0 -79 0 0 44 c0 64 35 166 79 232 22 33 164 192 315 354 152 162 283
311 293 330 35 72 13 179 -49 237 -57 54 -151 68 -223 33 -59 -28 -1158 -1132
-1214 -1219 -23 -36 -53 -101 -68 -145 -26 -79 -27 -88 -31 -388 l-4 -308 465
0 465 0 4 133 c3 126 5 137 33 190 22 42 149 183 475 528 245 259 463 495 484
523 45 59 107 185 132 271 16 55 18 128 22 815 2 529 0 770 -8 805 -15 71 -67
137 -131 169 -66 33 -162 36 -224 7z"/>
</g>
</svg>
