<?xml version="1.0" standalone="no"?>
<!DOCTYPE svg PUBLIC "-//W3C//DTD SVG 20010904//EN"
 "http://www.w3.org/TR/2001/REC-SVG-20010904/DTD/svg10.dtd">
<svg version="1.0" xmlns="http://www.w3.org/2000/svg"
 width="200.000000pt" height="200.000000pt" viewBox="0 0 200.000000 200.000000"
 preserveAspectRatio="xMidYMid meet">

<g transform="translate(0.000000,200.000000) scale(0.100000,-0.100000)"
fill="#000000" stroke="none">
<path d="M665 1981 c-52 -23 -102 -81 -111 -126 -30 -164 125 -285 274 -214
75 37 115 124 98 214 -14 71 -107 145 -186 145 -19 0 -53 -9 -75 -19z"/>
<path d="M1167 1926 c-76 -28 -117 -88 -117 -171 0 -59 19 -104 59 -138 92
-77 229 -49 281 59 71 145 -73 306 -223 250z"/>
<path d="M360 1648 c-47 -16 -166 -137 -213 -218 -116 -200 -124 -442 -19
-543 70 -67 220 -94 290 -52 40 24 72 88 72 143 0 40 -2 42 -29 42 -16 0 -39
8 -52 19 -28 23 -37 98 -38 322 l-1 147 36 32 c47 41 74 51 154 59 l65 7 -45
23 c-52 28 -163 37 -220 19z"/>
<path d="M975 1610 c-51 -14 -106 -19 -203 -19 l-133 -1 7 -52 c5 -40 14 -57
36 -76 46 -39 39 -72 -48 -229 -42 -76 -87 -155 -100 -175 -23 -36 -24 -45
-24 -223 0 -102 1 -185 3 -185 1 0 17 4 35 9 l32 10 -19 -28 c-11 -15 -27 -34
-36 -41 -12 -10 -15 -40 -15 -171 l0 -158 36 6 35 6 -17 -37 c-10 -19 -26 -38
-36 -42 -15 -4 -18 -16 -18 -71 0 -61 2 -67 34 -99 26 -26 42 -34 71 -34 29 0
45 8 71 34 l34 34 0 401 c0 394 0 401 20 401 20 0 20 -7 20 -401 l0 -401 34
-34 c26 -26 42 -34 71 -34 29 0 45 8 71 34 l34 34 0 240 0 239 -60 22 c-32 12
-61 25 -64 29 -2 4 24 149 60 322 57 280 64 328 64 433 0 136 17 159 22 30 3
-74 -4 -127 -44 -332 -26 -135 -48 -253 -48 -263 0 -10 11 -24 25 -30 33 -15
32 -25 -5 -33 -34 -7 -44 -23 -54 -78 -7 -37 -6 -38 39 -58 94 -42 314 -69
420 -52 l50 8 3 45 c4 68 32 190 54 235 11 22 37 58 58 80 l39 40 -34 165
c-19 91 -37 176 -40 190 -5 24 -5 25 11 5 9 -11 28 -45 43 -75 l26 -55 47 32
48 31 -32 61 c-17 34 -47 80 -66 101 -41 49 -37 51 18 5 46 -38 74 -43 108
-19 22 15 29 54 16 89 -4 9 -39 39 -78 66 l-71 50 -25 -32 -25 -32 -10 44 c-9
37 -16 45 -43 53 -27 7 -36 6 -55 -11 -75 -69 -211 -71 -271 -4 -23 25 -31 25
-121 1z"/>
<path d="M464 1560 c-80 -40 -79 -38 -76 -253 2 -106 7 -206 13 -223 13 -43
59 -63 92 -41 13 8 65 90 116 181 81 146 92 169 84 193 -5 16 -22 34 -38 42
-45 22 -70 0 -139 -122 -33 -60 -62 -104 -64 -98 -5 16 105 211 131 232 l22
17 -30 44 c-36 51 -56 56 -111 28z"/>
<path d="M1615 1206 c-54 -24 -95 -85 -95 -138 0 -70 79 -148 149 -148 85 0
159 82 148 163 -13 97 -119 162 -202 123z"/>
<path d="M1510 904 c-66 -56 -106 -175 -116 -346 -6 -96 -5 -110 11 -128 24
-26 50 -25 69 2 12 16 16 49 17 118 0 52 7 118 14 145 l13 50 1 -97 c0 -54 5
-98 10 -98 4 0 20 9 35 21 l26 20 0 -24 c0 -16 -12 -34 -35 -51 l-35 -27 0
-220 0 -220 25 -24 c31 -32 59 -32 90 0 24 24 25 28 25 180 0 97 4 155 10 155
6 0 10 -58 10 -155 0 -152 1 -156 25 -180 31 -32 59 -32 90 0 23 22 25 32 25
111 0 67 -4 92 -17 106 -15 17 -15 18 0 18 15 0 17 24 18 243 1 216 3 236 14
191 7 -28 16 -98 20 -155 4 -57 11 -110 17 -116 15 -19 42 -16 63 7 34 37 6
289 -43 390 -13 27 -22 34 -40 33 -19 -3 -22 1 -20 24 2 20 -4 30 -23 42 -24
13 -32 13 -83 -3 -53 -17 -60 -17 -106 -2 -65 21 -73 20 -110 -10z"/>
<path d="M1040 304 c0 -245 4 -266 51 -293 30 -17 71 -9 99 19 19 19 20 34 20
255 l0 235 -54 0 c-29 0 -68 3 -85 6 l-31 7 0 -229z"/>
<path d="M1247 513 c-4 -3 -7 -107 -7 -230 l0 -225 29 -29 c31 -31 59 -36 94
-17 39 20 46 40 47 126 0 105 -16 142 -63 142 l-32 0 48 30 c38 25 47 35 47
59 0 16 -7 34 -15 41 -8 7 -18 34 -21 61 l-7 49 -57 0 c-31 0 -60 -3 -63 -7z"/>
</g>
</svg>
