<?xml version="1.0" encoding="utf-8"?>
<!-- Generator: Adobe Illustrator 22.1.0, SVG Export Plug-In . SVG Version: 6.00 Build 0)  -->
<svg version="1.1" id="Layer_1" xmlns="http://www.w3.org/2000/svg" xmlns:xlink="http://www.w3.org/1999/xlink" x="0px" y="0px"
	 viewBox="0 0 47 35.4" style="enable-background:new 0 0 47 35.4;" xml:space="preserve">
<style type="text/css">
	.st0{clip-path:url(#SVGID_2_);}
	.st1{fill:#022A4100;}
	.st2{clip-path:url(#SVGID_6_);}
	.st3{clip-path:url(#SVGID_7_);fill:#022A4100;}
	.st4{fill:#BE1E2D;}
	.st5{fill:#FFFFFF;}
</style>
<g>
	<g>
		<defs>
			<path id="SVGID_1_" d="M7.7,31.8h31c2.9,0,5.3-2.4,5.3-5.3V7.8c0-2.9-2.4-5.3-5.3-5.3h-31c-2.9,0-5.3,2.4-5.3,5.3v18.7
				C2.4,29.4,4.8,31.8,7.7,31.8z"/>
		</defs>
		<clipPath id="SVGID_2_">
			<use xlink:href="#SVGID_1_"  style="overflow:visible;"/>
		</clipPath>
		<g class="st0">
			<g>
				<path id="SVGID_3_" class="st1" d="M7.1,2.5c-2.6,0-4.7,2.1-4.7,4.7v19.9c0,2.6,2.1,4.7,4.7,4.7h32.2c2.6,0,4.7-2.1,4.7-4.7V7.2
					c0-2.6-2.1-4.7-4.7-4.7C39.3,2.5,7.1,2.5,7.1,2.5z"/>
			</g>
			<g>
				<defs>
					<path id="SVGID_4_" d="M7.1,2.5c-2.6,0-4.7,2.1-4.7,4.7v19.9c0,2.6,2.1,4.7,4.7,4.7h32.2c2.6,0,4.7-2.1,4.7-4.7V7.2
						c0-2.6-2.1-4.7-4.7-4.7C39.3,2.5,7.1,2.5,7.1,2.5z"/>
				</defs>
				<defs>
					<path id="SVGID_5_" d="M7.1,2.5c-2.6,0-4.7,2.1-4.7,4.7v19.9c0,2.6,2.1,4.7,4.7,4.7h32.2c2.6,0,4.7-2.1,4.7-4.7V7.2
						c0-2.6-2.1-4.7-4.7-4.7C39.3,2.5,7.1,2.5,7.1,2.5z"/>
				</defs>
				<clipPath id="SVGID_6_">
					<use xlink:href="#SVGID_4_"  style="overflow:visible;"/>
				</clipPath>
				<clipPath id="SVGID_7_" class="st2">
					<use xlink:href="#SVGID_5_"  style="overflow:visible;"/>
				</clipPath>
				<path class="st3" d="M39.3,31.8H7.1c-2.6,0-4.7-2.1-4.7-4.7V7.2c0-2.6,2.1-4.7,4.7-4.7h32.2c2.6,0,4.7,2.1,4.7,4.7v19.9
					C44,29.7,41.9,31.8,39.3,31.8"/>
				<path class="st3" d="M39.3,31.8H7.1c-2.6,0-4.7-2.1-4.7-4.7V7.2c0-2.6,2.1-4.7,4.7-4.7h32.2c2.6,0,4.7,2.1,4.7,4.7v19.9
					C44,29.7,41.9,31.8,39.3,31.8"/>
			</g>
		</g>
		<g class="st0">
			<path class="st4" d="M31.5,25.7c-0.4-0.1-0.7-0.2-1-0.4c-1-0.5-1.9-0.9-2.8-1.5c-0.3-0.2-0.5-0.7-0.5-1c0.1-0.3,0.6-0.4,0.9-0.6
				c0.1,0,0.1,0,0.2,0c0.4-0.1,0.8-0.3,1.2-0.5c-0.3-0.4-0.5-0.8-0.9-1.1c-1.1-0.7-2.2-1.3-3.3-1.9c-0.4-0.2-0.8-0.5-1.3-0.8
				c1.5-0.7,7.9,1.7,9,3.3c-0.2,0.2-0.5,0.5-0.7,0.7c-1.2,1.3-0.8,2.7,0.9,3.1c1.4,0.4,2.8,0.7,4.1,1.2c0.6,0.2,1.2,0.5,1.8,0.8
				c0.3,0.2,0.5,0.7,0.8,1c-0.3,0.2-0.6,0.6-1,0.7c-0.8,0.2-1.6,0.4-2.4,0.5c-5.1,0.4-10.1,0.6-15.1-0.3c-0.6-0.1-1.1-0.4-1.7-0.6
				c0-0.1,0-0.3,0-0.4c0.7-0.1,1.3-0.3,2-0.4c2.5-0.3,5-0.5,7.5-0.8c0.8-0.1,1.5-0.4,2.3-0.6C31.5,25.9,31.5,25.8,31.5,25.7"/>
			<path class="st4" d="M15,24c0.9,0.2,1.8,0.4,2.6,0.7c0.9,0.4,0.9,1.2,0,1.6c-1.8,0.9-3.7,0.8-5.5,0c-0.9-0.4-0.9-1.2,0.1-1.6
				C13.1,24.3,14.1,24.2,15,24"/>
			<path class="st4" d="M8.4,21.6C7.7,21.4,7,21.3,6.3,21c-0.7-0.3-0.7-0.9,0-1.2c1.4-0.6,2.8-0.6,4.2,0c0.7,0.3,0.7,0.9,0,1.2
				C9.8,21.3,9.1,21.4,8.4,21.6"/>
			<path class="st5" d="M17.6,10.7c1.5,2,3.3,2.5,5.1,1.6c1.8-1,2.3-2.8,1.6-5.1c0.3,0.2,0.7,0.3,0.9,0.6c1.9,1.9,2.4,4.6,1.3,7.1
				c-0.6,1.3-1.4,2.3-2.4,3.2c-0.6,0.5-1.3,0.5-1.7,0c-0.5-0.5-0.5-1.2,0.1-1.8c1-1,2-2,2.2-3.4c0.1-0.6,0-1.3-0.2-1.9
				c-0.7,0.8-0.9,1.6-0.8,2.6c0.1,0.7-0.1,1.2-0.5,1.6c-0.2,0.2-0.5,0.5-0.7,0.8c-0.7,0.7-0.8,0.9-0.8,1.8c-0.4,0.1-0.7,0.1-1.1,0.2
				c-0.1,0-0.3,0-0.4-0.1c-1.9-1.6-3.4-3.9-2.6-6.8C17.5,10.8,17.6,10.8,17.6,10.7"/>
			<path class="st5" d="M24.3,18.2c0.5-0.5,0.9-1,1.3-1.5c0.4-0.5,0.7-1,1.1-1.6c1,0.5,2,0.9,2.9,1.5c1.9,1.2,3.8,2.5,5.7,3.9
				c1,0.7,1.2,1.9,0.5,2.8c-0.7,0.9-1.8,0.9-2.8,0.1C30.4,21.2,27.5,19.4,24.3,18.2"/>
			<path class="st5" d="M14.9,15.8c0.7,1,1.3,1.8,1.9,2.8c0.6,1,1.5,1.5,2.6,1.8c0.8,0.2,1.5,0.5,2.2,0.8c0.9,0.4,1.3,1.4,1,2.3
				c-0.3,0.9-1.3,1.4-2.2,1.1c-2-0.6-3.9-1.4-5.6-2.6c-0.2-0.1-0.3-0.2-0.4-0.3C11.9,19.8,12.3,17.1,14.9,15.8"/>
			<path class="st5" d="M17.6,9.1c0-1.9,1.4-3.4,3.3-3.4c1.9,0,3.4,1.5,3.4,3.4c0,1.9-1.5,3.3-3.3,3.3C19.1,12.4,17.6,11,17.6,9.1"
				/>
			<path class="st5" d="M18.6,6.3c-1.1,1-1.5,2.2-1.2,3.7c0,0.1,0,0.3-0.1,0.4c-0.9,2.7-0.1,4.9,1.8,6.8c0.3,0.3,0.6,0.6,0.9,0.9
				c0.4,0.5,0.4,1.1,0,1.6c-0.4,0.4-1.1,0.6-1.6,0.2c-4.3-3.5-4.9-8.6-2.2-12.4c0.3-0.4,0.6-0.7,1-1c0.4-0.2,0.8-0.3,1.2-0.4
				C18.5,6.1,18.6,6.2,18.6,6.3"/>
		</g>
	</g>
</g>
</svg>
