<?xml version="1.0" standalone="no"?>
<!DOCTYPE svg PUBLIC "-//W3C//DTD SVG 20010904//EN"
 "http://www.w3.org/TR/2001/REC-SVG-20010904/DTD/svg10.dtd">
<svg version="1.0" xmlns="http://www.w3.org/2000/svg"
 width="999.000000pt" height="1077.000000pt" viewBox="0 0 999.000000 1077.000000"
 preserveAspectRatio="xMidYMid meet">

<g transform="translate(0.000000,1077.000000) scale(0.100000,-0.100000)"
fill="#000000" stroke="none">
<path d="M4775 9984 c-27 -3 -115 -14 -195 -25 -534 -75 -1019 -284 -1408
-606 -138 -115 -350 -336 -454 -475 -341 -452 -516 -903 -569 -1461 -15 -164
-6 -544 16 -682 71 -447 210 -811 439 -1155 220 -328 480 -586 826 -817 574
-384 1413 -532 2140 -377 410 87 831 288 1160 553 307 247 599 611 778 969
139 280 232 588 274 912 18 142 15 529 -6 675 -54 382 -121 596 -294 939 -142
282 -303 507 -517 721 -430 431 -976 708 -1591 805 -126 21 -474 34 -599 24z
m441 -144 c251 -23 517 -88 759 -185 278 -111 496 -245 733 -447 50 -44 92
-84 92 -89 0 -4 -12 -15 -27 -23 -33 -17 -170 -157 -203 -206 -13 -19 -25 -36
-26 -38 -7 -10 -58 58 -84 113 -23 48 -45 76 -82 105 -27 22 -53 40 -58 40 -4
0 -27 16 -51 35 -23 20 -48 34 -55 31 -7 -3 -28 2 -45 11 -31 15 -36 15 -98
-6 l-66 -22 -125 60 c-216 105 -504 185 -713 198 -68 5 -87 9 -83 20 3 7 1 25
-4 39 -8 19 -16 25 -30 21 -19 -5 -20 0 -20 156 0 89 -3 173 -7 186 -6 23 -5
24 38 17 24 -3 94 -10 155 -16z m-347 -185 c1 -108 4 -202 7 -210 7 -17 -12
-22 -131 -30 -413 -29 -870 -223 -1224 -520 l-104 -87 -126 126 c-69 69 -141
136 -158 148 -31 22 -42 38 -25 38 5 0 53 39 108 86 275 237 678 450 1039 549
180 49 414 88 561 93 l51 2 2 -195z m5 -587 l4 -208 -46 0 c-66 0 -202 -24
-313 -54 -234 -64 -433 -165 -615 -312 -51 -41 -94 -74 -97 -74 -3 0 -36 32
-74 72 -98 103 -182 182 -204 192 -27 13 -24 29 9 48 15 9 72 53 127 97 225
179 529 325 815 390 110 25 341 60 377 57 9 -1 14 -54 17 -208z m417 182 c148
-24 312 -70 462 -128 108 -43 123 -52 178 -108 52 -54 59 -67 59 -101 0 -32 6
-45 31 -67 29 -26 31 -32 25 -75 -4 -32 -1 -52 9 -65 8 -11 15 -35 15 -53 0
-31 -1 -32 -32 -27 -19 4 -42 18 -53 33 -41 54 -98 111 -111 111 -20 0 -17
-12 12 -51 19 -25 24 -42 20 -64 -4 -20 0 -39 10 -53 27 -38 10 -35 -62 11
-84 54 -149 87 -249 127 -155 61 -411 120 -527 120 l-47 0 -3 210 -3 209 75
-5 c41 -3 127 -14 191 -24z m1646 -247 c432 -515 656 -1009 712 -1568 6 -60
13 -129 16 -153 3 -29 1 -44 -8 -47 -6 -2 -105 -6 -218 -7 l-207 -3 -1 78 c-3
180 -70 468 -165 712 -24 60 -49 129 -55 152 -6 23 -37 77 -69 120 -31 43 -66
92 -76 108 -11 17 -28 36 -38 43 -10 7 -37 39 -60 70 -23 31 -75 90 -115 130
-71 70 -81 91 -45 93 9 1 80 68 157 149 77 82 142 149 145 149 2 1 15 -11 27
-26z m-3907 3 c0 -7 63 -76 140 -152 77 -77 140 -145 140 -153 0 -7 -12 -22
-26 -34 -15 -11 -67 -74 -115 -139 -173 -232 -284 -449 -363 -711 -56 -184
-102 -454 -94 -553 l3 -46 -223 -2 -222 -1 5 60 c2 33 7 92 10 131 3 39 14
125 25 190 76 443 249 838 526 1203 155 203 194 246 194 207z m2195 -312 c245
-44 428 -118 629 -256 59 -40 120 -82 136 -93 37 -26 37 -40 0 -55 -17 -7 -85
-69 -152 -139 -68 -71 -123 -120 -125 -113 -8 21 -126 100 -220 146 -121 61
-303 114 -408 120 l-50 2 -5 208 c-3 114 -3 209 -1 211 2 2 15 2 30 -1 14 -2
89 -16 166 -30z m-349 -183 l1 -208 -76 -6 c-109 -8 -192 -32 -306 -87 -108
-52 -254 -145 -262 -167 -3 -7 -10 -13 -16 -13 -6 0 -61 49 -121 108 -61 59
-129 123 -151 141 l-40 32 30 25 c117 96 348 231 485 283 115 44 340 96 436
100 20 1 20 -3 20 -208z m1363 120 c30 -32 51 -90 51 -140 0 -35 20 -80 45
-101 9 -7 33 -16 53 -19 32 -5 40 -12 60 -53 12 -27 29 -48 38 -48 9 0 41 -18
71 -40 31 -22 63 -40 72 -40 9 0 28 -10 43 -23 37 -31 138 -154 138 -168 0 -8
15 -10 50 -5 l51 7 28 -63 c63 -138 115 -337 141 -533 6 -49 15 -107 20 -128
4 -20 5 -39 1 -41 -3 -2 -98 -6 -211 -7 l-205 -4 -6 80 c-4 44 -14 98 -23 121
-13 31 -14 47 -6 68 13 34 13 116 1 116 -17 0 -49 -50 -67 -103 -9 -29 -24
-63 -33 -76 -17 -27 -22 -153 -7 -183 7 -16 1 -18 -66 -18 l-74 0 -12 45 c-15
57 -9 72 36 80 31 5 43 15 75 62 20 31 37 63 37 70 0 8 12 34 26 59 20 35 25
52 19 77 -9 41 -9 89 0 152 10 73 -12 137 -53 150 -46 16 -48 21 -23 65 23 42
22 44 -28 40 -21 -2 -23 1 -16 22 25 82 18 91 -49 63 -34 -14 -37 -14 -57 6
-11 11 -18 27 -15 36 7 18 -59 102 -91 114 -15 6 -23 17 -23 33 0 13 -21 54
-46 91 -43 63 -54 86 -74 160 -4 17 -11 38 -15 48 -5 11 -3 17 6 17 8 0 25 9
39 20 35 28 68 25 99 -9z m-2679 -168 l148 -147 -66 -80 c-84 -103 -137 -186
-201 -312 -93 -184 -171 -470 -174 -640 -2 -57 -5 -73 -15 -69 -8 3 -103 5
-213 5 l-199 0 6 58 c31 311 109 593 232 837 68 137 120 218 233 363 49 63 89
118 89 123 0 5 3 9 6 9 4 0 73 -66 154 -147z m2622 -320 c120 -145 135 -178
103 -233 -20 -34 -19 -67 3 -75 9 -3 45 -25 79 -47 67 -44 85 -74 118 -194
l17 -60 -32 -54 c-36 -62 -45 -70 -78 -70 -30 0 -37 22 -18 59 9 16 16 38 16
48 0 10 9 24 20 31 28 17 25 27 -19 71 -51 51 -100 63 -141 32 -16 -11 -36
-21 -44 -21 -21 0 -29 35 -15 58 11 17 9 25 -14 52 -15 17 -27 35 -27 39 0 5
-11 20 -25 34 -23 22 -37 26 -123 32 -53 3 -117 10 -140 16 -64 14 -79 6 -97
-56 -8 -30 -19 -55 -24 -55 -4 0 -16 9 -26 20 -17 18 -16 20 16 58 51 60 373
391 381 391 3 1 35 -34 70 -76z m-2302 1 c36 -36 104 -99 153 -142 48 -42 87
-79 87 -82 0 -4 -11 -12 -25 -18 -13 -6 -35 -27 -47 -47 -14 -22 -42 -45 -74
-60 -30 -14 -66 -43 -88 -70 -21 -25 -42 -45 -48 -45 -5 0 -25 -7 -44 -16 -27
-13 -33 -21 -28 -38 7 -29 -13 -45 -67 -54 -38 -7 -46 -13 -70 -57 -31 -56
-34 -63 -61 -123 -16 -37 -18 -53 -10 -105 6 -34 9 -63 8 -64 -1 -1 -39 -2
-86 -3 -68 -2 -84 0 -81 11 2 8 8 55 13 104 22 203 106 445 216 627 62 100
169 248 181 248 3 0 36 -29 71 -66z m1000 -102 c0 -64 4 -133 10 -151 5 -19 9
-36 7 -37 -1 -1 -32 -5 -69 -9 l-68 -7 0 32 c0 28 -2 31 -15 20 -8 -7 -21 -34
-29 -60 -8 -27 -22 -60 -31 -74 -20 -30 -82 -51 -102 -34 -7 6 -26 8 -42 5
-21 -4 -34 -1 -46 13 -22 24 -34 25 -50 4 -8 -11 -19 -14 -33 -10 -23 8 -30
32 -10 38 24 8 -2 38 -55 62 -30 15 -59 26 -65 26 -20 0 -13 15 21 47 84 79
198 147 322 192 48 17 210 57 248 60 4 1 7 -52 7 -117z m255 104 c97 -17 183
-45 282 -92 92 -44 183 -97 183 -107 0 -4 -16 -21 -35 -38 -42 -37 -43 -47
-10 -55 49 -12 26 -43 -87 -113 -50 -32 -70 -51 -80 -77 -9 -27 -19 -35 -45
-40 -28 -5 -38 -2 -61 21 -37 38 -62 45 -94 29 -15 -8 -34 -14 -43 -14 -31 0
-8 25 60 67 85 51 105 77 112 148 9 86 -21 81 -138 -22 -25 -23 -26 -23 -78
-7 -28 8 -54 20 -56 27 -2 7 -5 74 -8 150 -2 94 0 137 7 137 6 0 47 -6 91 -14z
m-176 -510 c10 -12 6 -15 -26 -18 -55 -4 -54 -28 2 -84 37 -36 52 -44 70 -40
36 9 77 -12 115 -59 19 -25 45 -47 58 -51 16 -5 22 -14 22 -36 0 -16 4 -38 10
-48 7 -13 4 -29 -13 -59 l-22 -42 22 -17 c27 -20 53 -80 53 -120 0 -16 9 -41
21 -56 23 -30 20 -64 -12 -128 l-19 -38 -70 0 c-66 0 -70 -1 -84 -27 -8 -16
-19 -48 -26 -73 -6 -25 -19 -51 -28 -57 -35 -28 -188 -7 -272 36 -79 40 -77
57 5 66 73 7 100 25 111 72 3 16 16 49 28 74 15 31 21 58 18 83 -6 51 -45 68
-134 60 -76 -8 -91 -18 -83 -55 5 -21 1 -32 -15 -46 -28 -24 -55 -52 -80 -83
l-20 -25 -20 24 c-24 28 -28 60 -5 41 21 -17 45 -5 45 23 0 13 14 45 31 71 28
42 30 49 17 64 -9 9 -13 23 -11 30 4 10 -4 12 -32 6 l-38 -7 6 34 c4 19 9 59
13 89 6 47 12 60 49 95 23 22 44 48 48 58 4 9 19 22 34 28 67 26 135 63 143
80 9 16 1 83 -15 121 -4 11 -1 18 12 21 38 10 81 6 92 -7z m-1134 -366 c14
-16 20 -45 26 -123 4 -56 3 -111 -1 -123 -5 -11 -22 -27 -40 -34 -29 -12 -33
-11 -59 14 -15 14 -30 26 -34 26 -4 0 -5 -22 -1 -49 9 -68 -1 -104 -25 -96
-47 15 -32 -39 18 -68 35 -21 36 -20 46 53 7 58 17 74 42 66 15 -5 26 -27 42
-89 37 -137 146 -351 217 -427 l33 -35 -185 -189 c-174 -177 -187 -188 -202
-172 -16 16 -15 19 20 49 l37 32 -10 55 c-6 30 -16 62 -24 70 -28 33 -38 68
-46 166 -5 66 -14 112 -23 126 -9 12 -16 41 -16 63 0 60 -26 126 -67 175 -22
26 -40 59 -44 84 -4 22 -11 53 -15 69 -8 36 9 56 57 63 33 6 39 11 44 38 13
65 14 66 55 66 50 0 58 23 31 86 -27 60 -26 89 1 108 33 23 101 21 123 -4z
m618 -101 c16 -9 22 -9 25 0 9 26 31 8 48 -39 16 -45 21 -50 44 -48 14 2 26 0
28 -4 11 -35 -22 -60 -43 -32 -8 12 -18 15 -31 10 -16 -7 -182 -35 -206 -36
-16 0 -7 30 12 40 11 6 20 20 20 32 0 11 9 36 21 54 22 36 45 42 82 23z m1995
-87 c100 -3 113 -6 107 -20 -3 -9 -12 -64 -20 -122 -21 -159 -29 -170 -69 -92
-14 27 -40 60 -59 75 -24 18 -38 39 -45 69 -6 24 -23 55 -37 68 -29 27 -33 46
-7 34 9 -4 68 -10 130 -12z m666 -12 c-4 -8 -11 -52 -15 -98 -34 -353 -152
-695 -333 -972 -63 -96 -210 -280 -224 -280 -4 0 -15 30 -25 68 -30 109 -64
162 -104 162 -18 0 -23 -5 -23 -24 0 -14 -4 -27 -9 -30 -5 -3 -37 20 -71 52
l-63 58 45 46 c109 113 232 330 308 547 41 115 44 121 69 119 57 -4 69 37 24
84 l-26 27 11 83 c7 46 12 101 12 124 0 22 2 43 4 45 2 2 99 4 215 4 184 0
210 -2 205 -15z m567 0 c-2 -8 -8 -64 -12 -125 -44 -542 -255 -1067 -604
-1499 -44 -54 -87 -108 -96 -119 -15 -19 -22 -14 -173 137 l-157 157 59 63
c197 211 379 551 467 873 38 138 74 354 76 458 l2 70 221 0 c191 0 220 -2 217
-15z m-4952 -127 c6 -76 23 -195 37 -266 14 -71 23 -132 20 -134 -3 -3 -13 8
-23 26 -20 34 -26 36 -72 20 -19 -7 -31 -18 -31 -29 0 -22 -46 -36 -65 -20
-21 18 -68 8 -80 -16 -6 -12 -16 -28 -22 -35 -6 -8 -13 -41 -17 -74 -5 -49 -2
-73 19 -135 29 -84 50 -113 76 -105 12 4 27 -6 49 -34 38 -47 66 -57 80 -30
15 26 21 24 52 -21 17 -24 36 -40 48 -40 10 0 24 -9 30 -20 6 -12 21 -20 36
-20 20 0 29 -9 43 -40 16 -37 88 -110 107 -110 4 0 16 7 25 16 17 16 19 15 29
-10 5 -15 10 -31 10 -36 0 -11 68 -70 82 -70 9 0 158 -144 158 -153 0 -6 -303
-307 -310 -307 -11 0 -212 263 -295 385 -167 246 -318 631 -385 980 -17 90
-49 344 -50 392 0 10 53 13 213 16 116 1 215 3 218 5 3 1 11 -60 18 -135z
m546 50 c1 -77 -5 -97 -20 -73 -14 23 -50 8 -96 -40 -27 -27 -54 -50 -62 -50
-19 0 -53 -39 -67 -75 -6 -16 -15 -66 -20 -109 -5 -43 -16 -86 -23 -95 -8 -9
-17 -24 -20 -33 -10 -29 -27 -20 -27 15 0 17 -11 77 -24 132 -14 55 -32 163
-41 240 -10 77 -19 143 -22 148 -11 19 19 22 214 22 l208 0 0 -82z m208 77
c36 0 37 -1 26 -22 -6 -12 -17 -49 -24 -82 -11 -51 -11 -65 1 -83 12 -20 11
-26 -9 -57 -28 -45 -37 -45 -38 2 0 57 -23 219 -31 228 -16 15 -7 26 15 20 12
-3 39 -6 60 -6z m590 -185 c27 -4 41 -13 49 -30 6 -13 16 -21 23 -18 23 8 57
-16 50 -37 -4 -13 5 -27 32 -49 47 -39 56 -39 48 -2 -7 32 7 48 23 28 5 -6 12
-28 15 -47 3 -19 9 -49 13 -67 6 -29 0 -39 -57 -102 l-63 -70 -52 79 c-45 70
-154 297 -154 322 0 5 8 7 18 5 9 -3 34 -8 55 -12z m412 -115 c3 -6 2 -10 -4
-10 -5 0 -24 -12 -41 -26 -32 -28 -53 -25 -32 4 7 9 16 27 22 40 8 19 13 21
29 12 11 -5 23 -15 26 -20z m1985 -89 c0 -27 -46 -154 -83 -226 -71 -142 -202
-325 -232 -325 -6 0 -15 19 -21 42 -5 23 -14 43 -21 45 -13 5 -73 -92 -73
-118 0 -27 -27 -41 -72 -40 -24 0 -64 -5 -90 -11 -44 -11 -48 -10 -95 20 -26
17 -84 41 -128 53 -94 25 -111 35 -93 56 19 23 136 5 311 -47 80 -24 127 -21
127 6 0 9 9 29 20 45 12 15 27 57 34 92 8 35 19 79 25 98 17 50 -5 133 -36
137 -21 3 -34 32 -14 32 5 0 26 29 47 65 22 35 42 65 46 65 4 0 10 -9 13 -20
9 -30 43 -25 63 10 13 23 21 28 37 22 24 -8 116 -4 165 7 57 14 70 13 70 -8z
m-1875 -31 c4 -13 41 -37 103 -67 84 -41 105 -48 160 -48 l64 0 -6 -84 c-5
-76 -4 -87 15 -107 18 -19 18 -23 5 -36 -8 -9 -25 -14 -38 -11 -41 8 -61 -18
-66 -86 l-4 -61 -37 6 c-128 23 -324 111 -427 192 l-56 44 126 128 c69 70 126
133 126 139 0 19 28 12 35 -9z m1415 -130 c0 -6 -9 -14 -21 -18 -11 -4 -30
-25 -42 -46 -31 -54 -127 -85 -127 -41 0 8 21 20 47 27 33 9 52 21 60 38 16
32 83 64 83 40z m-500 -53 c0 -17 -22 -36 -77 -65 -67 -36 -71 9 -4 53 39 27
81 33 81 12z m58 -178 c5 -64 -72 -145 -162 -171 -50 -14 -65 -25 -77 -56 -9
-22 -13 -24 -52 -18 -117 17 -115 17 -120 44 -5 26 -7 27 -81 26 -56 -1 -81
-6 -94 -18 -23 -20 -72 -21 -98 -2 -23 18 -17 25 49 60 27 14 62 42 78 62 28
36 86 74 113 74 7 0 19 -6 25 -13 6 -8 29 -19 51 -26 22 -6 40 -16 40 -21 0
-19 18 -10 23 11 l6 21 40 -23 c34 -19 43 -20 56 -9 11 9 14 22 10 37 -7 28 3
29 44 6 29 -17 30 -17 58 8 34 32 64 49 78 45 6 -1 11 -18 13 -37z m-1337 -45
c83 -86 322 -214 415 -222 30 -2 54 -7 54 -11 -1 -3 -21 -19 -45 -34 -35 -22
-46 -36 -51 -63 -4 -20 -17 -48 -31 -64 l-24 -29 19 -43 c22 -50 85 -129 113
-142 21 -10 27 -41 6 -33 -7 3 -47 14 -88 26 -239 67 -461 178 -601 300 -24
21 -54 43 -66 50 -23 12 -22 14 70 100 51 49 113 114 138 145 25 31 47 56 50
56 4 0 22 -16 41 -36z m2109 -566 c0 -33 24 -58 56 -58 13 0 24 -4 24 -9 0
-22 -255 -229 -267 -217 -4 3 1 14 10 24 15 16 15 21 2 38 -26 34 -18 67 30
123 25 29 45 56 45 59 0 26 -46 73 -96 98 -51 26 -59 34 -62 62 -2 23 5 42 28
70 l31 39 99 -101 c75 -76 100 -108 100 -128z m-2298 18 c248 -161 559 -266
794 -268 l54 -1 0 -177 c0 -98 3 -191 6 -208 l6 -30 -43 13 c-24 7 -93 18
-154 24 -320 32 -704 187 -1005 406 -93 66 -200 156 -200 166 0 16 22 10 72
-22 55 -36 74 -35 173 6 40 16 80 25 118 25 61 0 117 21 117 44 0 7 -9 25 -20
39 -43 54 -20 50 82 -17z m2653 -331 l160 -155 -35 -30 c-488 -425 -1004 -652
-1610 -710 -63 -6 -126 -13 -140 -16 l-25 -4 0 222 0 223 101 1 c57 1 155 11
224 24 138 26 132 27 234 -49 83 -62 122 -67 176 -22 19 15 51 36 70 46 44 22
167 148 200 205 43 74 80 109 164 158 88 52 283 207 304 241 7 12 13 21 15 21
1 0 74 -70 162 -155z m-3201 72 c322 -285 706 -461 1151 -528 72 -10 157 -19
190 -19 l60 0 -3 -201 c-2 -145 0 -205 9 -215 6 -8 10 -16 8 -19 -3 -2 -50 0
-104 6 -543 55 -939 193 -1360 475 -122 81 -325 239 -325 253 0 8 290 311 298
311 2 0 36 -28 76 -63z m1566 -52 c9 -11 32 -15 79 -15 40 0 75 -5 85 -13 17
-13 17 -15 0 -64 l-18 -50 26 -49 c19 -37 39 -57 82 -82 31 -18 56 -37 56 -42
0 -6 -1 -10 -2 -10 -24 -1 -280 -32 -298 -36 l-25 -5 -1 164 c-1 90 -4 176 -8
191 -7 29 5 34 24 11z"/>
<path d="M5255 9583 c-55 -24 -110 -42 -122 -40 -41 8 -51 -10 -22 -39 34 -33
97 -46 164 -32 28 6 91 13 141 17 72 6 97 12 124 31 l33 24 -33 27 c-30 25
-74 40 -155 52 -21 3 -61 -9 -130 -40z"/>
<path d="M6230 9264 c0 -23 95 -114 120 -114 21 0 22 3 16 43 -4 23 -15 49
-24 58 -22 22 -112 32 -112 13z"/>
<path d="M7146 9629 c61 -63 134 -148 163 -191 133 -200 395 -484 579 -628 94
-73 109 -82 97 -54 -4 11 -23 71 -42 134 -70 230 -159 392 -286 522 -121 125
-247 193 -602 323 -11 4 30 -44 91 -106z"/>
<path d="M2727 9660 c-212 -85 -374 -176 -462 -258 -134 -125 -225 -279 -280
-477 -15 -55 -38 -130 -51 -167 l-23 -68 152 127 c209 174 257 225 395 420
143 201 218 298 308 393 37 38 65 70 63 70 -2 -1 -48 -19 -102 -40z"/>
<path d="M7864 9323 c112 -110 149 -193 232 -518 66 -264 117 -431 154 -507
24 -49 23 -48 7 -48 -7 0 -31 37 -54 83 -44 88 -135 196 -232 278 -31 25 -118
90 -194 143 -203 141 -269 203 -344 322 -26 42 42 -177 81 -261 76 -162 158
-246 491 -507 137 -108 264 -233 318 -315 22 -34 42 -61 42 -60 1 1 -2 43 -7
94 -6 57 -6 145 -1 235 22 323 4 514 -62 663 -63 141 -188 289 -312 368 -59
38 -140 77 -160 77 -3 0 15 -21 41 -47z"/>
<path d="M1987 9285 c-167 -84 -314 -244 -379 -413 -58 -150 -76 -326 -57
-567 12 -156 14 -350 4 -408 -4 -18 -2 -26 5 -22 5 3 10 11 10 17 0 19 111
160 185 233 38 39 117 106 175 149 123 93 339 306 394 389 60 92 105 188 126
272 30 117 26 127 -21 55 -57 -89 -139 -164 -319 -293 -229 -165 -353 -297
-421 -452 -11 -25 -24 -45 -29 -45 -15 0 -13 10 26 122 62 180 84 259 119 429
19 91 44 197 56 235 31 103 94 216 154 279 29 30 50 55 47 55 -4 -1 -38 -16
-75 -35z"/>
<path d="M8445 8796 c58 -131 81 -328 59 -499 -35 -273 -38 -579 -8 -864 5
-43 3 -63 -4 -63 -13 0 -19 18 -36 117 -18 101 -66 226 -116 300 -49 73 -133
160 -280 289 -114 100 -199 186 -253 254 l-27 35 6 -30 c16 -81 78 -260 119
-343 54 -112 107 -192 264 -401 196 -261 270 -390 316 -553 13 -46 24 -73 24
-60 3 76 85 358 146 502 133 311 123 720 -25 1046 -26 57 -195 324 -206 324
-1 0 8 -24 21 -54z"/>
<path d="M1410 8693 c-160 -240 -223 -424 -236 -690 -11 -217 13 -333 137
-659 72 -191 118 -346 120 -399 0 -21 7 -6 24 48 47 158 110 271 320 572 73
105 154 226 180 270 59 99 116 241 145 360 12 50 24 99 27 110 3 11 -15 -7
-39 -40 -25 -33 -98 -109 -163 -170 -230 -214 -307 -305 -379 -447 -40 -78
-55 -128 -83 -277 -10 -57 -33 -67 -33 -14 0 21 7 118 15 215 15 194 12 266
-25 563 -17 133 -21 203 -17 320 5 157 15 203 61 295 14 28 24 50 22 50 -3 0
-36 -48 -76 -107z"/>
<path d="M8853 7677 c-2 -174 -39 -315 -148 -563 -114 -261 -136 -324 -185
-537 -62 -264 -72 -299 -89 -305 -15 -5 -14 8 13 133 29 132 18 312 -29 450
-26 75 -99 216 -179 345 -100 158 -144 240 -177 324 -24 60 -29 67 -30 41 -12
-180 73 -601 206 -1015 26 -80 53 -167 61 -195 19 -70 27 -223 17 -339 -6 -70
-6 -94 2 -81 21 35 160 223 234 315 230 287 281 380 345 638 39 157 49 263 43
459 -4 157 -8 192 -36 297 -17 65 -35 124 -39 131 -4 8 -8 -37 -9 -98z"/>
<path d="M1061 7710 c0 -3 -15 -66 -31 -140 -56 -251 -50 -472 20 -759 61
-247 117 -347 366 -643 52 -62 122 -154 157 -205 34 -51 62 -91 63 -90 1 1 -2
40 -8 87 -18 158 -5 254 68 508 37 125 84 295 106 377 46 177 98 515 98 635
l-1 85 -25 -73 c-31 -92 -50 -130 -122 -239 -76 -118 -186 -336 -216 -432 -34
-108 -56 -231 -56 -315 0 -64 27 -224 45 -268 5 -13 2 -18 -8 -18 -20 0 -50
90 -82 247 -42 207 -75 315 -145 469 -174 380 -206 477 -220 669 -4 61 -8 108
-9 105z"/>
<path d="M8032 6588 c-57 -171 -87 -363 -112 -718 -29 -415 -81 -666 -171
-827 -16 -29 -29 -55 -29 -59 0 -3 17 8 38 24 41 33 284 195 437 292 382 244
635 563 726 919 24 95 43 288 34 349 l-7 47 -22 -75 c-49 -169 -145 -307 -386
-555 -155 -159 -254 -278 -360 -435 -70 -104 -144 -204 -154 -212 -24 -16 -24
6 0 44 40 62 81 161 112 262 25 83 27 105 26 251 0 143 -4 181 -38 355 -21
107 -43 249 -50 315 l-11 119 -33 -96z"/>
<path d="M1867 6535 c-4 -63 -24 -193 -47 -305 -22 -109 -43 -241 -46 -300
-12 -192 32 -388 120 -543 28 -49 40 -79 33 -84 -14 -8 -38 22 -157 197 -116
171 -143 203 -355 420 -236 241 -297 318 -360 453 -19 39 -41 97 -49 127 l-15
55 0 -105 c-3 -403 170 -738 528 -1027 95 -76 263 -191 600 -410 126 -82 122
-88 42 77 -69 143 -94 274 -136 718 -41 438 -60 554 -119 736 l-32 101 -7
-110z"/>
<path d="M7683 5743 c-65 -93 -131 -189 -146 -214 -50 -87 -108 -231 -192
-480 -47 -137 -105 -292 -130 -345 -55 -119 -137 -244 -207 -315 l-53 -55 78
23 c42 12 139 34 215 48 357 67 452 92 585 154 315 146 608 425 757 720 34 69
90 225 90 253 0 6 -17 -15 -38 -48 -65 -100 -159 -201 -255 -272 -123 -92
-159 -113 -435 -254 -272 -139 -391 -211 -498 -300 -128 -107 -156 -128 -170
-128 -24 0 -15 14 47 75 76 74 188 222 229 303 67 132 92 233 140 553 30 204
66 363 95 419 9 17 14 30 12 30 -2 0 -58 -75 -124 -167z"/>
<path d="M2160 5796 c32 -91 57 -205 90 -416 65 -414 126 -555 337 -770 91
-93 114 -120 99 -120 -15 0 -135 81 -216 145 -129 103 -212 152 -510 299 -140
70 -298 156 -353 192 -122 82 -231 188 -297 291 -59 91 -59 72 1 -82 111 -284
339 -542 656 -741 163 -102 280 -139 655 -203 128 -22 266 -49 306 -59 l74
-19 -32 25 c-50 39 -163 192 -213 289 -56 110 -99 218 -176 448 -70 208 -135
348 -228 490 -54 82 -167 237 -205 279 -4 6 1 -16 12 -48z"/>
<path d="M7150 4993 c-141 -113 -222 -186 -453 -413 -115 -113 -231 -221 -257
-241 -97 -73 -290 -158 -433 -189 -31 -7 -55 -15 -53 -17 2 -2 48 -12 102 -22
109 -21 238 -49 384 -86 406 -102 680 -110 926 -29 279 92 545 293 688 521
l26 43 -80 -65 c-131 -105 -316 -183 -517 -215 -63 -10 -293 -34 -443 -45
-108 -8 -334 -40 -425 -59 -105 -22 -195 -30 -195 -18 0 10 40 27 140 58 90
27 209 94 273 153 103 96 161 188 272 434 27 60 70 144 96 188 26 43 46 79 46
79 -1 0 -45 -35 -97 -77z"/>
<path d="M2734 4978 c18 -29 72 -129 119 -223 202 -404 304 -498 640 -590 31
-8 57 -20 57 -25 0 -16 -68 -11 -195 14 -149 30 -247 41 -540 61 -472 32 -689
94 -879 251 l-68 56 42 -63 c53 -77 173 -204 258 -271 150 -120 342 -209 532
-248 92 -19 127 -21 285 -17 215 6 287 18 625 105 140 36 293 70 340 76 l85
12 -60 12 c-86 19 -208 60 -294 99 -130 59 -227 134 -446 344 -115 111 -248
234 -295 274 -87 73 -229 185 -236 185 -2 0 11 -24 30 -52z"/>
<path d="M4365 4105 c-183 -28 -348 -82 -625 -202 -344 -150 -465 -183 -670
-183 -176 0 -348 39 -478 110 l-57 31 55 -56 c71 -72 193 -154 311 -209 195
-90 298 -111 508 -103 280 10 472 89 813 332 247 177 328 211 484 203 52 -3
100 -10 105 -15 7 -7 -27 -30 -104 -71 -155 -82 -258 -148 -414 -264 -117 -87
-369 -306 -361 -313 98 -83 152 -125 158 -125 4 0 29 28 55 62 186 235 631
590 811 644 43 13 46 12 102 -18 203 -109 445 -300 678 -534 l151 -152 74 68
74 68 -20 22 c-16 19 -157 142 -250 219 -106 88 -356 246 -512 325 -51 25 -93
51 -93 56 0 16 50 24 160 24 98 1 109 -1 174 -32 39 -18 140 -82 226 -141 262
-182 412 -257 625 -312 76 -20 116 -23 255 -24 144 0 176 3 250 24 206 59 362
145 500 277 l75 72 -90 -44 c-223 -108 -512 -131 -758 -59 -87 25 -334 123
-505 199 -125 56 -241 91 -390 117 -209 35 -525 20 -637 -31 -54 -24 -52 -24
-122 -1 -143 48 -384 64 -558 36z"/>
<path d="M1603 2143 c3 -406 6 -485 19 -524 71 -204 211 -299 438 -299 231 0
379 111 434 325 13 49 16 136 16 517 l0 458 -115 0 -114 0 -3 -462 -3 -463
-24 -49 c-16 -33 -38 -57 -69 -77 -40 -25 -56 -29 -119 -29 -110 0 -160 27
-204 110 l-24 45 -3 463 -3 462 -115 0 -115 0 4 -477z"/>
<path d="M2960 1980 l0 -640 115 0 115 0 2 472 3 472 61 -105 c33 -57 97 -167
141 -244 45 -77 139 -241 211 -365 l130 -225 131 -3 131 -3 0 641 0 640 -115
0 -115 0 0 -465 c0 -256 -3 -465 -7 -465 -5 1 -127 210 -272 465 l-264 465
-133 0 -134 0 0 -640z"/>
<path d="M4440 1980 l0 -640 115 0 115 0 2 255 3 256 175 -255 175 -255 139
-1 c109 0 136 3 129 13 -5 6 -65 89 -133 182 -69 94 -141 192 -162 218 -21 27
-38 52 -38 56 0 4 19 13 43 20 197 59 301 218 284 434 -8 102 -31 159 -89 222
-55 60 -137 105 -226 124 -30 6 -156 11 -292 11 l-240 0 0 -640z m495 406 c82
-35 115 -86 115 -178 0 -83 -21 -124 -84 -162 -45 -28 -56 -30 -172 -34 l-124
-4 0 202 0 203 113 -5 c72 -4 126 -11 152 -22z"/>
<path d="M5566 2593 c4 -16 51 -179 104 -363 54 -184 130 -447 170 -585 39
-137 75 -261 79 -275 7 -24 11 -25 103 -28 l95 -3 7 33 c21 110 201 826 206
820 4 -4 53 -197 110 -429 l104 -423 92 0 92 0 11 33 c6 17 49 167 97 332 102
355 250 866 259 895 6 19 2 20 -113 20 l-120 0 -107 -432 c-59 -238 -111 -440
-115 -448 -6 -10 -11 -2 -19 25 -16 61 -201 841 -201 848 0 4 -40 7 -90 7 -85
0 -90 -1 -95 -22 -3 -13 -50 -211 -105 -442 -54 -230 -101 -420 -104 -423 -6
-6 -3 -18 -122 452 -58 231 -108 423 -111 428 -2 4 -56 7 -119 7 l-114 0 6
-27z"/>
<path d="M7855 2583 c-9 -21 -128 -307 -266 -635 -137 -328 -249 -599 -249
-603 0 -3 57 -4 127 -3 l127 3 61 163 60 162 249 -2 248 -3 62 -162 61 -163
129 0 c99 0 127 3 123 13 -32 74 -227 541 -252 602 -18 44 -81 195 -140 335
-59 140 -115 272 -123 293 l-15 37 -93 0 -94 0 -15 -37z m189 -482 c42 -109
76 -201 76 -205 0 -3 -72 -6 -159 -6 l-160 0 29 78 c86 232 126 332 131 332 3
0 40 -89 83 -199z"/>
</g>
</svg>
